<svg xmlns="http://www.w3.org/2000/svg" width="104.44" height="103" viewBox="0 0 104.44 103">
  <defs>
    <style>
      .cls-1 {
        fill: #e6e6e6;
        fill-rule: evenodd;
      }
    </style>
  </defs>
  <path id="Facebook" class="cls-1" d="M2785.99,6736.5c0-28.45,23.38-51.51,52.22-51.51s52.23,23.06,52.23,51.51-23.38,51.51-52.23,51.51S2785.99,6764.95,2785.99,6736.5Zm53.57,28.53,0.45-25.8,7.88,0.15,1.36-10.04-9.07-.16,0.12-6.42c0.05-2.91.82-4.88,4.62-4.81l4.85,0.08,0.16-8.99a58.868,58.868,0,0,0-7.06-.52c-6.99-.13-11.86,4.46-12.01,13.07l-0.13,7.42-7.91-.15-0.18,10.06,7.91,0.14-0.45,25.8Z" transform="translate(-2786 -6685)"/>
</svg>
