<svg xmlns="http://www.w3.org/2000/svg" width="104.43" height="103" viewBox="0 0 104.43 103">
  <defs>
    <style>
      .cls-1 {
        fill: #e6e6e6;
        fill-rule: evenodd;
      }
    </style>
  </defs>
  <path id="Instagram" class="cls-1" d="M2914.67,6736.5c0-28.45,23.38-51.51,52.23-51.51s52.22,23.06,52.22,51.51-23.38,51.51-52.22,51.51S2914.67,6764.95,2914.67,6736.5Zm52.99-8.55a8.662,8.662,0,1,0,8.84,8.91A8.931,8.931,0,0,0,2967.66,6727.95Zm10.43-13.65-19.96-.58c-7.63-.23-14.02,5.48-14.26,12.71l-0.61,18.93c-0.23,7.24,5.78,13.3,13.41,13.53l19.96,0.58c7.63,0.22,14.03-5.48,14.26-12.72l0.62-18.92C2991.74,6720.59,2985.72,6714.52,2978.09,6714.3Zm-11.1,34.47c-7.08-.21-12.66-5.84-12.45-12.55s6.16-12.01,13.24-11.8,12.66,5.84,12.44,12.55S2974.07,6748.98,2966.99,6748.77Zm14.54-22.27a3.061,3.061,0,1,1,3.32-2.96A3.138,3.138,0,0,1,2981.53,6726.5Z" transform="translate(-2914.69 -6685)"/>
</svg>
