<svg xmlns="http://www.w3.org/2000/svg" width="104.44" height="103" viewBox="0 0 104.44 103">
  <defs>
    <style>
      .cls-1 {
        fill: #e6e6e6;
        fill-rule: evenodd;
      }
    </style>
  </defs>
  <path id="Youtube" class="cls-1" d="M3043.56,6736.5c0-28.45,23.38-51.51,52.22-51.51s52.23,23.06,52.23,51.51-23.38,51.51-52.23,51.51S3043.56,6764.95,3043.56,6736.5Zm78.37-13.06a6.81,6.81,0,0,0-4.86-4.73c-4.29-1.13-21.42-.99-21.42-0.99s-17.14.14-21.41,1.29a6.947,6.947,0,0,0-4.79,4.85c-1.1,4.25-1.04,13.03-1.04,13.03s0.06,8.83,1.22,13.01a6.823,6.823,0,0,0,4.86,4.74c4.33,1.12,21.42.98,21.42,0.98s17.13-.13,21.41-1.28a6.857,6.857,0,0,0,4.79-4.81c1.1-4.25,1.04-13.03,1.04-13.03S3123.13,6727.67,3121.93,6723.44Zm-31.55,21.39-0.11-16.23,14.3,8Z" transform="translate(-3043.56 -6685)"/>
</svg>
